<svg viewBox="0 0 272 42" fill="none" xmlns="http://www.w3.org/2000/svg">
    <path
        d="M111.113 0.0347736C110.904 0.0602247 110.806 0.178535 110.885 0.444576C111.043 0.97609 111.382 1.38504 111.801 1.74049C111.756 1.79619 111.716 1.86065 111.682 1.9336C111.639 2.0256 111.612 2.11892 111.593 2.21359C111.43 2.30383 111.269 2.39592 111.125 2.50539C106.473 2.55482 101.822 2.72076 97.178 2.97848C96.9894 2.98886 96.8011 3.0057 96.6126 3.01709C93.7189 2.94529 90.8249 2.88272 87.9306 2.88407C85.6215 2.88544 82.8611 1.7646 81.008 3.14475C80.7233 3.35674 80.6407 3.67779 80.6889 4.04052C76.2393 4.07008 71.7902 4.14538 67.35 4.4117C67.0708 4.33381 66.8257 4.31108 66.6829 4.44926C65.3661 4.53398 64.0499 4.63107 62.7349 4.75393C62.6447 4.76638 62.5543 4.77732 62.464 4.78932C62.3641 4.78143 62.2641 4.77458 62.1641 4.7668C62.2562 4.43725 61.4484 4.62449 61.0912 4.5855C58.1363 4.26238 55.7485 4.15874 52.7262 3.97295C52.417 3.95966 50.7098 3.60601 49.1647 3.71977C48.3498 3.47924 47.429 3.05376 47.096 3.68008C47.0944 3.68298 47.0933 3.68569 47.0916 3.68859C44.3922 3.39495 41.694 3.13036 39.005 3.38928C38.207 3.46612 37.421 3.64221 36.6493 3.87955C35.7929 3.79072 34.9372 3.699 34.0826 3.59526C33.701 3.54895 32.6271 3.16384 32.9518 3.36998C33.5642 3.75865 34.1722 4.17561 34.7839 4.5865C33.9196 4.97427 33.0818 5.42437 32.2783 5.90602C31.1325 5.86533 28.5288 5.78304 28.4438 5.83629C28.4054 5.86029 28.3725 5.89097 28.3356 5.91675C27.9023 5.89766 27.321 5.87142 27.2809 5.86955C26.8192 5.86766 26.2626 5.85087 26.0238 6.02724C25.9031 6.02663 25.7825 6.02495 25.6619 6.02392C24.7281 6.06377 23.5673 5.53243 22.8596 6.14407C22.6731 6.30522 22.5338 6.50599 22.4302 6.73088C21.6386 6.58816 20.878 6.5264 20.3122 6.939C19.4353 6.96709 18.616 7.2002 19.7629 8.34863C19.5242 8.54667 19.37 8.71903 19.2885 8.86785C19.0479 8.86961 18.8075 8.86686 18.5668 8.86892C16.7637 8.88428 14.9612 8.91773 13.1582 8.94617C12.1562 8.96215 11.0001 8.4792 10.1407 8.96444C9.62107 8.97025 9.10192 8.98771 8.58489 9.03417C8.82647 9.53091 8.95256 10.1305 9.14599 10.6702C9.04168 11.0582 8.94074 11.4496 8.78406 11.7923C9.15349 11.7993 9.52367 11.7952 9.8934 11.7944C9.91371 11.8089 9.92894 11.8279 9.95015 11.8416C10.8223 12.4024 12.0225 11.8915 13.0587 11.9102C13.4188 11.9169 13.7789 11.9208 14.1391 11.9274C15.3365 12.0169 16.5309 12.1279 17.7252 12.2504C17.7063 12.2852 17.6914 12.3212 17.6738 12.3566C16.0916 12.5284 14.4931 12.7304 13.1154 12.9337C12.2646 13.0593 11.3901 13.1048 10.5734 13.3746C10.2028 13.497 9.37252 13.7977 9.63964 14.0827C9.94259 14.4058 10.2953 14.6676 10.6697 14.9023C10.3001 14.9083 9.80418 14.9112 9.54326 14.9195C8.50155 14.9527 7.46469 15.069 6.42512 15.1437C6.14427 15.9861 4.80855 17.2369 5.5824 17.6701C5.82699 17.807 6.21488 17.9372 6.66819 18.0627C6.6599 18.077 6.65327 18.0937 6.64463 18.1078C6.70387 18.1068 6.76313 18.1076 6.82237 18.1067C9.78637 18.8825 16.1893 19.4283 20.385 19.7266C20.3596 19.8657 20.3444 20.0052 20.3401 20.1439C20.3037 20.1748 20.267 20.2049 20.2319 20.2383C19.6186 20.1171 19.5679 20.1405 20.0659 20.3971C19.9413 20.5296 19.8161 20.6621 19.6901 20.7919C17.7776 20.7579 15.657 20.7396 15.2699 20.735C14.8626 21.5018 13.5645 22.3164 14.0406 23.035C12.1828 23.0022 10.3245 22.9937 8.46926 23.0435C8.67038 23.5898 8.71076 24.2751 8.84725 24.8769C8.82653 24.9253 8.80479 24.9723 8.78407 25.0207C7.19586 25.0843 5.60843 25.1676 4.02333 25.3114C3.2363 25.3828 2.23636 25.0396 1.66866 25.5903C1.63433 25.6236 1.60805 25.6632 1.57657 25.6987C1.45063 25.7101 1.32445 25.7159 1.19859 25.7298C1.37209 25.7443 1.45213 25.7503 1.52732 25.7566C1.50374 25.7854 1.47643 25.8114 1.45451 25.8413C1.15964 25.9374 0.716255 26.185 1.01334 26.8562C0.891626 27.3617 0.855468 27.9068 0.832385 28.4064C0.821403 28.6432 1.3 28.4794 1.53375 28.5158C1.81528 28.4965 2.09687 28.4833 2.37861 28.4729C2.37707 28.4808 2.3726 28.4868 2.37218 28.4954C2.18573 31.6472 2.70719 31.1372 4.54589 31.1248C5.56667 31.0852 6.58132 31.0302 7.59658 30.9102C7.75416 30.8915 8.98223 30.7111 9.16743 30.6924C9.41899 30.6662 9.67217 30.655 9.92447 30.6367C10.1524 30.7987 10.3974 30.9291 10.6526 31.0379C10.5461 31.127 10.4941 31.2249 10.568 31.349C10.7864 31.7153 11.2381 31.6123 11.762 31.3652C12.4628 31.4963 13.198 31.5234 13.9046 31.5229C13.8813 31.6324 13.875 31.7452 13.9131 31.8651C14.0298 32.2317 14.3328 32.4484 14.7044 32.6032C14.7024 32.9191 14.9781 32.9613 15.4336 32.8274C15.4948 32.8425 15.5534 32.862 15.6146 32.8767C15.6904 33.103 15.7796 33.3197 15.8898 33.5214C15.8522 33.7401 15.8154 33.9577 15.7645 34.1608C15.7409 34.2544 15.9578 34.1565 16.0547 34.1544C16.1589 34.15 16.2631 34.1459 16.3674 34.1415C16.4094 34.18 16.4469 34.2224 16.4926 34.2574C17.1809 34.7835 18.2228 34.3334 19.0882 34.3561C22.6731 34.4503 22.6674 34.4167 26.3257 34.3829C27.3876 34.3563 28.4497 34.338 29.5113 34.3035C32.5117 34.206 35.5091 34.0434 38.5103 33.9634C41.363 33.8875 44.2397 33.8438 47.0916 33.7939C51.8108 33.6547 56.5321 33.6837 61.2528 33.6727C61.2594 33.6734 61.2665 33.6742 61.2731 33.6748C61.2572 34.0743 61.8047 34.1841 62.3825 34.2026C62.9482 34.615 63.7079 34.5523 64.4994 34.4097C64.603 34.6349 64.7432 34.8351 64.9299 34.9965C65.6376 35.6081 66.7973 35.0768 67.7311 35.1166C67.8517 35.1157 67.9724 35.1151 68.093 35.1145C68.332 35.2905 68.8887 35.2731 69.3501 35.2712C69.3902 35.2693 69.9723 35.243 70.4059 35.224C70.4428 35.2497 70.4757 35.2804 70.514 35.3044C70.5991 35.3577 73.2052 35.2764 74.3496 35.2358C75.1525 35.717 75.9884 36.1678 76.8521 36.5553C76.2406 36.966 75.633 37.3823 75.021 37.7707C74.6963 37.9769 75.7702 37.5918 76.1518 37.5455C77.0065 37.4417 77.8631 37.35 78.7195 37.2612C79.4911 37.4984 80.2764 37.6746 81.0742 37.7514C83.7629 38.0103 86.4617 37.7456 89.1608 37.4521C89.1626 37.4555 89.1633 37.4586 89.1652 37.4619C89.4984 38.0888 90.4206 37.6615 91.2361 37.4211C92.7807 37.5344 94.4874 37.1812 94.7965 37.1679C97.8187 36.9821 100.205 36.8796 103.16 36.5565C103.518 36.5175 104.327 36.7038 104.234 36.3741C104.334 36.3662 104.434 36.3593 104.533 36.3516C104.623 36.3636 104.714 36.3745 104.804 36.387C105.871 36.4866 106.938 36.5692 108.006 36.6433C108.007 36.6649 108.007 36.6885 108.008 36.7099C108.015 36.8788 108.195 36.8181 108.44 36.6734C108.544 36.6802 108.648 36.685 108.752 36.6917C108.816 36.7542 108.901 36.7835 109 36.7904C109.291 36.8937 109.627 36.8387 109.971 36.7603C114.228 37.0009 118.492 37.0731 122.758 37.1015C122.71 37.4637 122.794 37.7844 123.078 37.9961C124.931 39.3763 127.692 38.2555 130.001 38.2568C132.894 38.2582 135.787 38.1956 138.68 38.1238C138.869 38.1352 139.058 38.1521 139.247 38.1624C143.89 38.4201 148.541 38.5861 153.193 38.6355C153.337 38.7455 153.499 38.8378 153.663 38.9284C153.682 39.0228 153.709 39.1166 153.752 39.2084C153.786 39.2813 153.826 39.3447 153.871 39.4004C153.452 39.756 153.113 40.1646 152.954 40.6963C152.638 41.7605 155.158 40.4567 156.26 40.3359C156.446 40.3155 156.891 40.268 157.15 40.2404C157.26 40.2894 157.376 40.3337 157.481 40.3884C159.891 40.2385 162.301 40.0671 164.71 39.8907C166.145 40.5902 167.926 39.6924 169.528 39.5753C176.016 39.101 179.078 38.7986 183.971 38.3148C184.213 38.3262 184.456 38.341 184.698 38.3469C185.336 38.3627 186.182 38.7955 186.612 38.3233C186.643 38.2891 186.664 38.2602 186.694 38.2268C186.924 38.2189 187.102 38.1583 187.188 38.0004C187.459 37.9739 187.53 37.9672 187.816 37.9393C189.793 37.679 191.908 37.8849 193.829 37.4351C194.98 37.5345 196.133 37.6308 196.87 36.977C198.111 36.9548 199.352 36.9505 200.594 37.0049C201.277 37.0213 201.96 37.0445 202.643 37.0649C202.674 37.0797 202.704 37.0967 202.738 37.1068C202.93 37.1633 203.123 37.2075 203.317 37.2462C203.357 37.2766 203.397 37.3033 203.439 37.3278C203.433 37.3542 203.433 37.3836 203.427 37.4093C203.477 37.4049 203.527 37.3997 203.578 37.3954C203.951 37.5545 204.383 37.5177 204.835 37.4137C205.907 37.6328 207.031 37.4414 208.156 37.227C211.271 37.3115 214.386 37.3553 217.501 37.2303C220.603 37.1051 220.445 37.13 223.404 36.9439C223.713 36.9244 224.022 36.9047 224.331 36.8849C224.514 36.8977 224.696 36.9171 224.879 36.9289C227.705 37.1524 230.525 36.9011 233.348 36.7948C236.29 36.6904 239.235 36.727 242.172 36.5298C242.162 36.4966 242.16 36.4702 242.16 36.445C242.438 36.5038 242.728 36.5795 242.867 36.4204C243.177 36.515 243.482 36.6026 243.505 36.4065C243.543 36.0719 243.577 35.7218 243.597 35.3723C244.055 35.2994 244.512 35.2355 244.966 35.205C247.047 35.065 249.129 34.9337 251.207 34.7469C252.602 34.6213 254.002 34.5105 255.382 34.2673C255.797 34.1943 256.832 34.1257 256.559 33.8039C256.025 33.1758 255.345 32.7094 254.633 32.2774C254.961 31.9463 255.278 31.6066 255.568 31.2432C255.927 31.1821 256.193 31.0444 256.206 30.7132C256.207 30.6954 256.206 30.6794 256.206 30.6618C256.335 30.6537 256.456 30.6497 256.585 30.6414C257.601 30.5762 258.702 30.8272 259.628 30.4033C259.763 30.3412 259.924 30.2413 260.086 30.1254C260.945 30.1314 262.067 30.1745 262.961 29.928C263.552 30.0234 264.277 30.2638 264.384 29.7853C264.438 29.5442 264.468 29.3274 264.487 29.1224C264.647 29.0946 264.817 29.0708 264.995 29.0494C265.4 29.1717 265.776 29.2497 265.896 28.9336C265.897 28.9304 265.898 28.928 265.9 28.9251C267.14 28.7225 268.062 28.2477 266.191 26.0768C265.792 25.6131 264.975 25.9439 264.365 25.9073C263.441 25.8519 262.516 25.8339 261.591 25.8011C260.977 25.7793 260.3 25.5252 259.692 25.5265C259.65 25.4052 259.447 25.438 259.24 25.4761C258.658 25.2189 258.097 24.9835 257.565 24.7788C258.415 24.3468 259.322 23.8429 260.317 23.2447C260.87 22.9121 259.029 23.1731 258.385 23.1374C257.256 23.1861 256.127 23.2254 254.997 23.2672C254.955 23.1754 254.911 23.0844 254.864 22.9947C257.409 22.7751 259.955 22.562 262.499 22.336C263.066 22.1594 264.692 22.1359 264.199 21.8061C263.197 21.1371 262.259 20.6004 261.358 20.1562C262.041 19.8236 262.768 19.456 263.595 19.0158C264.012 18.7935 262.649 19.0538 262.177 19.0727C261.169 19.122 260.162 19.1806 259.154 19.2325C258.446 18.9934 257.752 18.8203 257.061 18.6875C256.929 18.3902 256.73 18.0972 256.492 17.8508C257.511 17.7825 258.514 17.662 259.468 17.3809C260.391 17.4686 261.335 17.5709 261.737 16.8767C261.966 16.4802 261.876 15.9564 261.629 15.4713C261.682 15.2477 261.701 15.0242 261.693 14.8084C263.937 14.7033 266.47 14.4104 268.472 13.5382C268.887 13.5121 269.302 13.4883 269.717 13.462C270.452 13.3827 272.296 13.8624 271.922 13.2239C271.619 12.7064 271.243 12.2766 270.814 11.9151C271.217 11.4591 271.536 10.9366 271.736 10.3285C271.972 9.61249 270.232 10.2698 269.48 10.2405C268.406 10.2659 267.333 10.3036 266.26 10.3328C264.992 10.2357 263.666 10.3037 262.388 10.4433C261.66 10.4661 260.933 10.4831 260.206 10.5076C260.353 9.94985 260.392 9.33335 260.496 8.7751C260.53 8.58978 260.029 8.76078 259.643 8.8663C259.619 8.82698 259.601 8.78496 259.574 8.74722C259.413 8.52694 259.134 8.52907 258.832 8.5788C257.021 8.40377 255.211 8.204 253.398 8.04777C253.38 7.78875 253.364 7.52981 253.361 7.27216C252.876 7.22005 252.391 7.15372 251.905 7.11553C250.862 7.03415 247.146 6.84106 246.303 6.79476C242.229 6.57108 238.16 6.39321 234.081 6.26803C231.223 6.21725 228.362 6.16307 225.502 6.14682C226.242 6.04514 226.982 5.95043 227.724 5.87111C228.995 5.66671 230.893 5.69364 229.296 3.55928C229.374 3.07982 229.138 2.92736 228.766 2.91454C228.736 2.88101 228.714 2.85234 228.682 2.81799C228.253 2.34577 227.408 2.77969 226.77 2.79547C225.877 2.81747 224.985 2.88537 224.092 2.93063C223.126 2.99457 222.157 3.04315 221.192 3.12266C217.738 3.40762 218.819 3.4171 215.384 3.6805C214.169 3.77371 212.95 3.83053 211.734 3.91222C207.961 4.16544 207.067 4.24345 203.282 4.53336C202.659 4.57903 202.035 4.62341 201.412 4.6696C201.335 4.56613 201.086 4.63564 200.831 4.71251C200.819 4.71349 200.805 4.71368 200.792 4.71458C200.651 4.56402 200.365 4.63836 200.09 4.69632C200.091 4.67116 200.094 4.64475 200.103 4.61158C197.165 4.41434 194.22 4.4521 191.278 4.34768C188.456 4.24139 185.635 3.98901 182.809 4.21251C182.627 4.22434 182.445 4.24361 182.262 4.2565C181.953 4.23678 181.645 4.21691 181.336 4.1975C178.377 4.01139 178.534 4.03624 175.433 3.91107C172.317 3.78597 169.202 3.82978 166.087 3.91418C164.962 3.69988 163.838 3.50859 162.766 3.72751C162.313 3.62322 161.881 3.58662 161.507 3.74682C161.457 3.74246 161.407 3.73727 161.357 3.73291C161.363 3.75871 161.366 3.78799 161.37 3.81443C161.329 3.83849 161.288 3.86511 161.249 3.8949C161.054 3.93365 160.86 3.97891 160.668 4.03544C160.634 4.04561 160.605 4.06257 160.574 4.07727C159.891 4.09761 159.208 4.12097 158.526 4.13735C157.284 4.19172 156.042 4.18634 154.801 4.16417C154.065 3.51049 152.913 3.60781 151.762 3.70717C149.841 3.25646 147.725 3.46228 145.747 3.20189C137.337 2.38258 135.654 2.16506 127.459 1.5659C125.856 1.44876 124.076 0.550976 122.64 1.25158C120.231 1.07517 117.823 0.903745 115.412 0.75381C115.307 0.808573 115.192 0.852812 115.081 0.901846C114.823 0.874277 114.378 0.8268 114.192 0.806373C113.365 0.715716 111.741 -0.041317 111.114 0.0350468L111.113 0.0347736ZM254.459 31.2966C254.266 31.313 254.074 31.3261 253.881 31.3416C253.885 31.3375 253.891 31.3339 253.895 31.3298C254.062 31.3053 254.256 31.2986 254.46 31.2965L254.459 31.2966Z"
        class="color" />
</svg>