<svg width="198" height="62" viewBox="0 0 198 62" xmlns="http://www.w3.org/2000/svg">
    <g clip-path="url(#clip0_4_1076)">
        <path
            d="M123.32 19.88C123 19.88 122.67 19.78 122.39 19.59L98.9801 3.66001L75.5801 19.59C75.0201 19.98 74.2801 19.98 73.7201 19.59L50.3201 3.66001L26.9201 19.59C26.3601 19.98 25.6201 19.98 25.0601 19.59L0.720056 3.03001C-0.0399436 2.52001 -0.229944 1.49001 0.280056 0.730007C0.790056 -0.0199927 1.83006 -0.219993 2.58006 0.300007L25.9801 16.23L49.3801 0.300007C49.9401 -0.0899927 50.6801 -0.0899927 51.2401 0.300007L74.6401 16.23L98.0401 0.300007C98.6001 -0.0899927 99.3401 -0.0899927 99.9001 0.300007L123.3 16.23L146.7 0.300007C147.26 -0.0899927 148 -0.0899927 148.56 0.300007L171.97 16.23L195.38 0.300007C196.14 -0.209993 197.17 -0.0199927 197.68 0.740007C198.19 1.50001 198 2.53001 197.24 3.05001L172.89 19.61C172.33 19.99 171.59 19.99 171.03 19.61L147.65 3.66001L124.25 19.59C123.97 19.78 123.64 19.88 123.32 19.88Z"
            class="color" />
        <path
            d="M123.32 40.34C123 40.34 122.67 40.24 122.39 40.05L98.9901 24.12L75.59 40.05C75.0301 40.43 74.2901 40.43 73.7301 40.05L50.3301 24.12L26.9301 40.05C26.3701 40.43 25.6301 40.43 25.0701 40.05L0.720056 23.49C-0.0399436 22.97 -0.229944 21.94 0.280056 21.19C0.790056 20.43 1.83006 20.23 2.58006 20.75L25.9801 36.68L49.3801 20.75C49.9401 20.37 50.6801 20.37 51.2401 20.75L74.6401 36.68L98.0401 20.75C98.6001 20.37 99.3401 20.37 99.9001 20.75L123.3 36.68L146.7 20.75C147.26 20.37 148 20.37 148.56 20.75L171.97 36.68L195.38 20.75C196.14 20.24 197.17 20.43 197.68 21.19C198.19 21.95 198 22.98 197.24 23.49L172.89 40.06C172.33 40.44 171.59 40.44 171.03 40.06L147.62 24.13L124.22 40.06C123.97 40.25 123.64 40.34 123.32 40.34Z"
            class="color" />
        <path
            d="M123.32 61.33C123 61.33 122.67 61.23 122.39 61.04L98.9901 45.11L75.59 61.04C75.0301 61.42 74.2901 61.42 73.7301 61.04L50.3301 45.11L26.9301 61.04C26.3701 61.42 25.6301 61.42 25.0701 61.04L0.720056 44.47C-0.0399436 43.96 -0.229944 42.93 0.280056 42.17C0.790056 41.41 1.83006 41.21 2.58006 41.73L25.9801 57.66L49.3801 41.73C49.9401 41.35 50.6801 41.35 51.2401 41.73L74.6401 57.66L98.0401 41.73C98.6001 41.35 99.3401 41.35 99.9001 41.73L123.3 57.66L146.7 41.73C147.26 41.35 148 41.35 148.56 41.73L171.97 57.66L195.38 41.73C196.14 41.21 197.17 41.41 197.68 42.17C198.19 42.92 198 43.95 197.24 44.47L172.89 61.03C172.33 61.41 171.59 61.41 171.03 61.03L147.62 45.1L124.22 61.03C123.97 61.23 123.64 61.33 123.32 61.33Z"
            class="color" />
    </g>
    <defs>
        <clipPath id="clip0_4_1076">
            <rect width="197.99" height="61.33" fill="white" />
        </clipPath>
    </defs>
</svg>