<svg xmlns="http://www.w3.org/2000/svg" id="Layer_1" data-name="Layer 1" viewBox="18 44.43 254 254.5">
  <defs>
  </defs>
  <polygon class="color" points="123.74 164.82 113.75 164.82 113.75 131.44 84.34 146.62 84.34 212.8 113.75 227.98 113.75 195.17 123.74 195.17 123.74 164.82"/>
  <polygon class="color" points="205.66 212.8 205.66 146.62 176.25 131.44 176.25 164.82 167 164.82 167 195.17 176.25 195.17 176.25 227.98 205.66 212.8"/>
  <polygon class="color" points="272 109.96 272 249.46 176.12 298.93 176.12 285.95 260.65 242.33 260.65 117.09 145 57.42 29.35 117.09 29.35 242.33 113.75 285.88 113.75 298.87 18 249.46 18 109.96 145 44.43 272 109.96"/>
  <polygon class="color" points="251.62 122.91 251.62 236.52 176.12 275.47 176.12 241.54 222.21 217.76 222.21 141.66 160.07 109.6 160.07 194.98 145 225.22 130.66 194.98 130.66 109.22 67.79 141.66 67.79 217.76 113.75 241.47 113.75 275.41 38.38 236.52 38.38 122.91 145 67.89 251.62 122.91"/>
</svg>