<svg viewBox="0 0 98 99" fill="none" xmlns="http://www.w3.org/2000/svg">
    <path
        d="M96.9 38.8L38.7 97.0001C40.3 97.3001 41.9 97.6 43.5 97.8L97.7 43.6C97.5 42 97.2 40.4 96.9 38.8Z"
        class="color" />
    <path
        d="M93.6 28.7L28.7 93.6C30 94.2 31.3 94.7 32.7 95.2L95.3 32.6C94.7 31.3 94.2 30 93.6 28.7Z"
        class="color" />
    <path
        d="M83.7 14.6C83.3 14.2 82.8 13.8 82.3 13.2L13.1 82.4C13.6 83 14.1 83.4 14.5 83.8C14.9 84.2 15.4 84.6 15.9 85.2L85.1 16C84.5 15.4 84.1 15 83.7 14.6Z"
        class="color" />
    <path d="M83.7 83.8C88.2 79.3 91.7 74.2 94.1 68.4L68.3 94.2C74.1 91.8 79.2 88.3 83.7 83.8Z"
        class="color" />
    <path
        d="M57.2 97.4L97.3 57.3C97.6 55.2 97.9 53.2 97.9 51.1L50.9 98.1C53.1 98 55.2 97.8 57.2 97.4Z"
        class="color" />
    <path
        d="M65.6 3.09998L3 65.7C3.5 67 4 68.3999 4.6 69.7L69.5 4.79999C68.2 4.09999 66.9 3.59998 65.6 3.09998Z"
        class="color" />
    <path
        d="M40.8 0.800018L0.7 40.9C0.3 43.2 0.1 45.4 0 47.6L47.6 0C45.3 0.2 43 0.400018 40.8 0.800018Z"
        class="color" />
    <path
        d="M14.5 14.5999C10 19.0999 6.50001 24.2 4.10001 30L29.9 4.19995C24.1 6.59995 18.9 10.0999 14.5 14.5999Z"
        class="color" />
    <path
        d="M74.6 7.40002L7.29999 74.7C7.99999 75.9 8.79999 77.0001 9.49999 78.0001L78 9.70001C76.9 8.90001 75.8 8.10002 74.6 7.40002Z"
        class="color" />
    <path
        d="M54.7 0.599976L0.5 54.8C0.7 56.4 1 58 1.3 59.6L59.5 1.39996C57.9 0.999963 56.3 0.699976 54.7 0.599976Z"
        class="color" />
    <path
        d="M88.6 20.3L20.2 88.7C21.3 89.5 22.4 90.2 23.5 90.9L90.8 23.6C90.1 22.5 89.4 21.3 88.6 20.3Z"
        class="color" />
</svg>