<?xml version="1.0" standalone="no"?>
<svg xmlns="http://www.w3.org/2000/svg" viewBox="0 0 1440 320">
    <path class="color"
        d="M0,160L21.8,144C43.6,128,87,96,131,106.7C174.5,117,218,171,262,170.7C305.5,171,349,117,393,96C436.4,75,480,85,524,112C567.3,139,611,181,655,208C698.2,235,742,245,785,256C829.1,267,873,277,916,266.7C960,256,1004,224,1047,192C1090.9,160,1135,128,1178,133.3C1221.8,139,1265,181,1309,170.7C1352.7,160,1396,96,1418,64L1440,32L1440,320L1418.2,320C1396.4,320,1353,320,1309,320C1265.5,320,1222,320,1178,320C1134.5,320,1091,320,1047,320C1003.6,320,960,320,916,320C872.7,320,829,320,785,320C741.8,320,698,320,655,320C610.9,320,567,320,524,320C480,320,436,320,393,320C349.1,320,305,320,262,320C218.2,320,175,320,131,320C87.3,320,44,320,22,320L0,320Z"></path>
</svg>